<?xml version="1.0" standalone="no"?>
<!DOCTYPE svg PUBLIC "-//W3C//DTD SVG 20010904//EN"
 "http://www.w3.org/TR/2001/REC-SVG-20010904/DTD/svg10.dtd">
<svg version="1.0" xmlns="http://www.w3.org/2000/svg"
 width="2000.000000pt" height="2000.000000pt" viewBox="0 0 2000.000000 2000.000000"
 preserveAspectRatio="xMidYMid meet">
<metadata>
Created by potrace 1.14, written by Peter Selinger 2001-2017
</metadata>
<g transform="translate(0.000000,2000.000000) scale(0.100000,-0.100000)"
fill="#000000" stroke="none">
<path d="M9515 18630 c-350 -21 -631 -89 -968 -231 -524 -223 -833 -387 -1041
-553 -161 -128 -526 -499 -646 -656 -57 -74 -141 -182 -187 -239 -71 -89 -100
-140 -199 -340 -137 -278 -251 -541 -304 -701 -46 -138 -76 -268 -132 -582
-49 -269 -37 -250 -138 -223 -30 8 -136 25 -235 37 -346 43 -989 23 -1154 -36
-24 -9 -51 -16 -61 -16 -35 0 -239 -69 -351 -118 -64 -29 -119 -52 -122 -52
-4 0 -98 -43 -209 -96 -288 -135 -437 -225 -592 -352 -121 -100 -386 -367
-461 -465 -33 -44 -107 -138 -164 -210 -95 -121 -114 -152 -216 -362 -180
-368 -271 -601 -294 -750 -4 -27 -17 -95 -29 -150 -12 -55 -34 -165 -49 -245
l-28 -145 0 -500 c0 -434 2 -514 18 -609 10 -60 20 -113 23 -117 2 -5 8 -36
13 -71 5 -35 18 -99 29 -143 11 -44 30 -123 42 -175 36 -151 123 -425 176
-555 66 -163 87 -211 114 -265 15 -30 40 -86 55 -125 15 -38 53 -126 85 -195
32 -69 86 -192 121 -275 66 -157 209 -444 301 -605 30 -52 74 -129 98 -170 74
-129 167 -266 260 -381 172 -216 624 -682 755 -780 82 -61 299 -196 416 -258
87 -47 97 -55 102 -84 2 -18 -2 -138 -10 -267 -23 -378 -12 -483 73 -659 37
-75 62 -110 130 -181 118 -122 161 -229 205 -505 17 -105 17 -475 1 -587 -32
-219 -116 -462 -237 -688 -201 -375 -236 -502 -238 -855 -1 -178 9 -245 69
-425 76 -229 166 -376 389 -635 163 -190 220 -269 270 -378 108 -233 103 -394
-19 -684 -49 -117 -56 -141 -56 -200 0 -81 38 -173 88 -215 43 -36 133 -68
190 -68 59 0 154 44 199 91 56 60 172 351 209 524 21 99 24 360 5 455 -39 197
-153 454 -273 615 -41 55 -117 147 -168 205 -233 264 -317 418 -341 629 -9 72
-7 108 10 223 27 185 52 262 127 399 104 188 161 317 213 475 60 182 97 331
111 444 28 235 21 663 -16 862 -9 49 -15 90 -13 91 2 1 48 24 103 51 157 78
251 177 344 363 63 125 82 205 82 349 0 92 -4 134 -19 175 -22 65 -86 194
-113 229 -19 24 -48 85 -48 100 0 4 28 13 63 20 274 54 462 164 744 434 208
200 564 604 708 805 17 23 51 69 76 104 72 96 239 351 304 462 32 55 80 137
106 181 57 97 231 446 279 560 l35 81 130 -123 c175 -166 241 -216 435 -339
188 -118 356 -207 480 -256 47 -18 86 -34 87 -34 2 -1 -2 -17 -7 -36 -6 -19
-29 -126 -51 -239 -22 -113 -54 -256 -70 -319 -24 -95 -29 -133 -29 -235 0
-145 14 -206 74 -332 101 -210 243 -300 528 -334 l107 -13 6 -56 c12 -120 37
-249 66 -335 64 -191 136 -317 323 -564 208 -274 280 -424 302 -629 l7 -65
-74 62 c-82 68 -221 142 -314 165 -35 9 -104 15 -171 15 -183 0 -312 -50 -440
-172 -63 -60 -83 -87 -124 -172 -69 -140 -84 -203 -84 -361 0 -155 15 -221 79
-352 34 -68 64 -112 121 -173 115 -121 319 -250 464 -291 25 -7 47 -14 49 -16
2 -1 -20 -24 -50 -50 -149 -130 -235 -240 -309 -394 -92 -195 -127 -399 -117
-688 9 -254 51 -420 163 -644 65 -130 107 -195 253 -397 129 -179 202 -319
231 -440 48 -203 11 -321 -165 -530 -58 -69 -75 -113 -75 -200 0 -90 27 -155
86 -212 54 -51 100 -68 187 -68 125 0 178 38 325 233 65 87 142 238 177 347
25 76 29 104 33 256 5 196 -5 267 -64 435 -65 187 -140 318 -358 624 -109 152
-179 292 -213 420 -22 85 -26 121 -26 245 0 173 18 272 69 377 44 91 105 158
263 287 135 111 266 241 320 319 44 65 126 238 146 312 11 39 20 122 24 235 7
168 9 179 45 280 69 191 87 292 93 500 6 215 -7 312 -62 479 -69 206 -156 358
-349 614 -183 243 -227 326 -261 489 -26 120 -29 114 78 121 161 10 282 63
384 170 69 72 114 159 145 279 18 74 20 102 15 248 -8 237 -28 338 -117 615
-26 83 -50 160 -51 173 -4 21 5 27 84 58 224 86 373 193 650 463 163 159 405
420 567 611 l45 53 20 -43 c47 -103 209 -411 249 -475 18 -27 49 -81 71 -120
21 -38 66 -113 100 -165 34 -52 78 -120 98 -151 71 -112 265 -336 525 -607
249 -259 398 -387 577 -492 39 -22 95 -56 125 -75 30 -19 87 -50 127 -70 l71
-37 -24 -71 c-47 -138 -115 -388 -124 -460 -28 -216 7 -438 90 -567 43 -67
127 -143 196 -178 60 -30 197 -72 235 -72 15 0 19 -4 15 -16 -3 -8 -13 -73
-22 -142 -17 -143 -12 -317 13 -417 61 -247 191 -541 338 -765 151 -231 195
-326 195 -428 0 -64 -34 -188 -79 -285 -45 -97 -132 -199 -253 -296 -89 -70
-181 -168 -260 -275 -112 -151 -150 -252 -204 -546 -45 -246 -25 -419 70 -608
24 -48 58 -128 74 -179 46 -137 121 -278 191 -358 33 -38 105 -124 160 -191
55 -67 140 -159 190 -205 104 -96 137 -141 182 -254 27 -69 31 -88 27 -146 -4
-53 -11 -76 -35 -110 -17 -24 -44 -67 -62 -96 -30 -47 -77 -95 -167 -168 -83
-66 -111 -222 -60 -330 28 -61 87 -116 149 -140 64 -24 164 -17 238 16 100 47
241 196 351 374 73 118 91 155 119 245 21 66 24 94 23 235 0 147 -2 166 -27
240 -15 44 -57 140 -93 213 -65 134 -65 134 -217 289 l-152 156 52 18 c224 76
388 262 473 535 32 104 28 231 -10 335 -40 110 -72 162 -149 242 -120 125
-225 166 -453 174 -174 7 -172 3 -42 108 48 38 137 124 198 190 103 113 114
128 177 260 114 239 144 358 142 565 -2 261 -53 389 -321 798 -71 110 -152
288 -197 437 -35 115 -37 125 -31 225 7 140 23 183 94 252 52 51 65 58 151 83
266 75 412 223 442 445 24 175 -10 431 -87 662 -19 59 -33 112 -30 116 3 5 23
12 43 14 54 8 183 61 288 119 155 86 271 176 439 344 162 161 463 483 480 513
5 9 55 74 111 143 110 135 240 310 299 399 20 30 42 64 50 75 48 69 169 262
205 325 24 41 65 113 92 160 48 82 309 602 309 615 0 4 22 57 49 119 57 129
121 291 121 306 0 6 8 25 17 43 9 18 24 59 34 92 10 33 38 119 63 190 25 72
46 139 46 149 0 11 9 49 20 85 24 82 49 175 60 221 5 19 21 85 36 145 15 61
30 135 34 165 5 30 15 90 24 133 10 43 21 112 26 155 5 42 17 124 25 182 22
147 45 493 43 641 -2 264 -35 537 -90 754 -11 44 -26 107 -33 140 -7 33 -21
78 -30 100 -10 22 -23 60 -30 85 -29 102 -156 409 -194 470 -6 8 -42 74 -81
145 -111 202 -161 278 -317 477 -216 277 -506 546 -788 734 -38 25 -79 54 -90
64 -11 10 -56 37 -100 60 -44 23 -84 45 -90 50 -21 17 -205 112 -261 134 -33
13 -97 41 -144 61 -124 53 -441 155 -481 155 -8 0 -53 12 -100 26 -46 14 -118
30 -159 35 -41 5 -115 16 -165 25 -117 21 -801 32 -945 14 -141 -16 -266 -39
-345 -61 -38 -12 -109 -31 -156 -45 -48 -13 -120 -38 -160 -55 -41 -17 -82
-32 -92 -33 -14 -1 -31 26 -71 114 -284 622 -782 1214 -1366 1622 -142 99
-274 176 -475 278 -465 235 -897 366 -1411 426 -155 18 -660 26 -859 14z
m1974 -959 c112 -58 382 -281 581 -480 625 -628 1111 -1555 1249 -2386 35
-210 45 -334 45 -570 -1 -338 -39 -570 -154 -935 -51 -162 -68 -192 -128 -227
-127 -74 -288 7 -300 150 -3 41 4 76 31 162 117 362 148 543 147 870 0 672
-244 1391 -707 2082 -247 369 -618 754 -929 963 -94 64 -119 104 -119 192 0
57 4 72 30 110 57 81 169 112 254 69z m3914 -1836 c84 -15 190 -37 237 -51 47
-13 92 -24 100 -24 8 0 62 -16 120 -35 315 -103 529 -207 805 -392 180 -120
266 -190 429 -351 357 -352 607 -746 777 -1222 17 -47 34 -103 39 -125 5 -22
16 -60 24 -84 9 -24 16 -55 16 -69 0 -14 9 -58 20 -96 18 -66 36 -193 61 -426
11 -99 5 -321 -11 -426 -6 -34 -15 -115 -20 -180 -6 -66 -19 -161 -30 -213
-11 -52 -20 -111 -20 -132 0 -55 -80 -421 -126 -574 -13 -44 -24 -86 -24 -94
0 -17 -42 -158 -72 -241 -11 -30 -26 -75 -33 -100 -12 -40 -27 -80 -95 -265
-10 -27 -35 -88 -55 -135 -20 -47 -52 -123 -72 -170 -37 -92 -225 -469 -253
-510 -9 -14 -46 -77 -81 -140 -35 -63 -82 -143 -104 -177 -22 -34 -67 -104
-100 -155 -33 -51 -80 -120 -105 -154 -25 -33 -58 -78 -73 -100 -177 -247
-379 -486 -612 -723 -294 -299 -405 -383 -573 -437 -48 -15 -107 -30 -132 -34
-25 -4 -88 -18 -140 -30 -83 -20 -123 -23 -315 -24 -197 -1 -231 1 -325 22
-57 13 -132 34 -165 47 -180 67 -424 210 -588 343 -97 79 -339 314 -419 407
-143 168 -274 326 -296 357 -13 18 -40 56 -60 84 -72 100 -216 344 -307 519
-37 72 -75 141 -85 155 -9 14 -40 79 -69 145 -29 66 -72 162 -97 213 l-45 92
94 143 c334 508 603 1025 809 1552 244 626 439 1386 498 1950 6 61 16 128 21
150 6 22 15 144 21 270 22 436 -25 867 -138 1256 -3 11 12 21 53 38 32 12 81
31 108 42 48 20 224 62 330 79 28 4 79 16 115 25 98 27 227 34 533 30 242 -4
297 -8 430 -30z m-10003 -1175 c180 -13 330 -35 473 -67 l117 -26 0 -286 c0
-414 21 -596 119 -1016 17 -71 41 -168 54 -215 13 -47 38 -134 55 -195 56
-200 140 -423 249 -660 30 -66 66 -147 78 -180 13 -33 53 -125 89 -204 37 -79
108 -238 157 -354 114 -264 255 -546 416 -826 191 -333 303 -495 481 -699 l65
-75 -18 -51 c-35 -100 -177 -411 -262 -575 -233 -449 -480 -816 -841 -1246
-115 -137 -491 -506 -580 -570 -104 -74 -141 -90 -272 -121 -456 -108 -767
-89 -1070 68 -343 178 -397 221 -807 651 -141 148 -258 292 -369 452 -171 247
-416 726 -573 1117 -27 69 -86 202 -130 295 -43 94 -95 208 -114 254 -119 288
-230 765 -257 1106 -6 73 -15 176 -20 230 -25 253 -8 589 40 833 12 58 33 161
46 230 26 129 33 153 91 305 53 137 240 523 276 570 291 377 444 543 644 702
140 113 426 261 759 396 109 44 149 55 344 96 345 71 478 82 760 61z m4487
-782 c-3 -8 -6 -5 -6 6 -1 11 2 17 5 13 3 -3 4 -12 1 -19z m217 -5336 c11 -38
2 -77 -44 -202 -37 -101 -69 -238 -70 -298 0 -122 -61 -210 -160 -232 -68 -15
-120 -3 -169 38 l-33 28 21 77 c12 43 41 178 66 300 25 122 51 246 57 275 l11
52 156 -2 155 -3 10 -33z m4820 -1087 l139 -3 20 -38 c77 -149 165 -541 133
-592 -14 -23 -220 -61 -341 -64 -119 -3 -319 22 -338 41 -5 5 -11 44 -14 87
-5 68 -1 99 30 224 35 141 68 245 102 324 l16 38 57 -7 c31 -4 120 -9 196 -10z
m-9654 -729 c0 -68 81 -270 143 -361 35 -51 42 -68 42 -110 0 -109 -122 -255
-200 -240 -73 14 -168 106 -195 190 -13 39 -11 180 7 448 l6 97 99 0 c97 0 98
0 98 -24z m4771 -1561 c62 -40 157 -134 219 -217 l60 -80 -17 -29 c-35 -58
-71 -84 -116 -83 -75 2 -241 102 -296 179 -23 33 -26 47 -26 114 0 56 5 82 17
101 39 54 90 59 159 15z m5154 -2376 c20 -19 20 -20 -9 -74 -16 -31 -43 -67
-59 -81 -33 -28 -63 -29 -151 -3 -38 11 -38 11 -32 52 4 23 8 42 9 43 1 1 33
22 72 47 60 39 75 44 110 40 22 -3 49 -14 60 -24z"/>
</g>
</svg>
